<svg width="49" height="22" viewBox="0 0 49 22" fill="none" xmlns="http://www.w3.org/2000/svg">
<path d="M0.5 8C0.5 3.58172 4.08172 0 8.5 0H40.5C44.9183 0 48.5 3.58172 48.5 8V14C48.5 18.4183 44.9183 22 40.5 22H8.5C4.08172 22 0.5 18.4183 0.5 14V8Z" fill="#7381FC"/>
<path d="M13.44 13.58H10.53L10.03 15H8.84L11.33 8.04H12.65L15.14 15H13.94L13.44 13.58ZM13.12 12.65L11.99 9.42L10.85 12.65H13.12ZM15.8427 12.24C15.8427 11.6733 15.956 11.1767 16.1827 10.75C16.416 10.3167 16.736 9.98333 17.1427 9.75C17.5493 9.51667 18.016 9.4 18.5427 9.4C19.2093 9.4 19.7593 9.56 20.1927 9.88C20.6327 10.1933 20.9293 10.6433 21.0827 11.23H19.8527C19.7527 10.9567 19.5927 10.7433 19.3727 10.59C19.1527 10.4367 18.876 10.36 18.5427 10.36C18.076 10.36 17.7027 10.5267 17.4227 10.86C17.1493 11.1867 17.0127 11.6467 17.0127 12.24C17.0127 12.8333 17.1493 13.2967 17.4227 13.63C17.7027 13.9633 18.076 14.13 18.5427 14.13C19.2027 14.13 19.6393 13.84 19.8527 13.26H21.0827C20.9227 13.82 20.6227 14.2667 20.1827 14.6C19.7427 14.9267 19.196 15.09 18.5427 15.09C18.016 15.09 17.5493 14.9733 17.1427 14.74C16.736 14.5 16.416 14.1667 16.1827 13.74C15.956 13.3067 15.8427 12.8067 15.8427 12.24ZM23.5488 10.42V13.47C23.5488 13.6767 23.5954 13.8267 23.6888 13.92C23.7888 14.0067 23.9554 14.05 24.1888 14.05H24.8888V15H23.9888C23.4754 15 23.0821 14.88 22.8088 14.64C22.5354 14.4 22.3988 14.01 22.3988 13.47V10.42H21.7488V9.49H22.3988V8.12H23.5488V9.49H24.8888V10.42H23.5488ZM26.5195 8.76C26.3128 8.76 26.1395 8.69 25.9995 8.55C25.8595 8.41 25.7895 8.23667 25.7895 8.03C25.7895 7.82333 25.8595 7.65 25.9995 7.51C26.1395 7.37 26.3128 7.3 26.5195 7.3C26.7195 7.3 26.8895 7.37 27.0295 7.51C27.1695 7.65 27.2395 7.82333 27.2395 8.03C27.2395 8.23667 27.1695 8.41 27.0295 8.55C26.8895 8.69 26.7195 8.76 26.5195 8.76ZM27.0795 9.49V15H25.9395V9.49H27.0795ZM30.7062 13.98L32.2662 9.49H33.4762L31.3762 15H30.0162L27.9262 9.49H29.1462L30.7062 13.98ZM39.3879 12.11C39.3879 12.3167 39.3746 12.5033 39.3479 12.67H35.1379C35.1712 13.11 35.3346 13.4633 35.6279 13.73C35.9212 13.9967 36.2812 14.13 36.7079 14.13C37.3212 14.13 37.7546 13.8733 38.0079 13.36H39.2379C39.0712 13.8667 38.7679 14.2833 38.3279 14.61C37.8946 14.93 37.3546 15.09 36.7079 15.09C36.1812 15.09 35.7079 14.9733 35.2879 14.74C34.8746 14.5 34.5479 14.1667 34.3079 13.74C34.0746 13.3067 33.9579 12.8067 33.9579 12.24C33.9579 11.6733 34.0712 11.1767 34.2979 10.75C34.5312 10.3167 34.8546 9.98333 35.2679 9.75C35.6879 9.51667 36.1679 9.4 36.7079 9.4C37.2279 9.4 37.6912 9.51333 38.0979 9.74C38.5046 9.96667 38.8212 10.2867 39.0479 10.7C39.2746 11.1067 39.3879 11.5767 39.3879 12.11ZM38.1979 11.75C38.1912 11.33 38.0412 10.9933 37.7479 10.74C37.4546 10.4867 37.0912 10.36 36.6579 10.36C36.2646 10.36 35.9279 10.4867 35.6479 10.74C35.3679 10.9867 35.2012 11.3233 35.1479 11.75H38.1979Z" fill="#FCFCFC"/>
</svg>
