<svg width="57" height="22" viewBox="0 0 57 22" fill="none" xmlns="http://www.w3.org/2000/svg">
<path d="M0.5 8C0.5 3.58172 4.08172 0 8.5 0H48.5C52.9183 0 56.5 3.58172 56.5 8V14C56.5 18.4183 52.9183 22 48.5 22H8.5C4.08172 22 0.5 18.4183 0.5 14V8Z" fill="url(#paint0_linear)"/>
<path d="M14.96 15H13.82L10.39 9.81V15H9.25V8.04H10.39L13.82 13.22V8.04H14.96V15ZM18.847 15.09C18.327 15.09 17.857 14.9733 17.437 14.74C17.017 14.5 16.687 14.1667 16.447 13.74C16.207 13.3067 16.087 12.8067 16.087 12.24C16.087 11.68 16.2104 11.1833 16.457 10.75C16.7037 10.3167 17.0404 9.98333 17.467 9.75C17.8937 9.51667 18.3704 9.4 18.897 9.4C19.4237 9.4 19.9004 9.51667 20.327 9.75C20.7537 9.98333 21.0904 10.3167 21.337 10.75C21.5837 11.1833 21.707 11.68 21.707 12.24C21.707 12.8 21.5804 13.2967 21.327 13.73C21.0737 14.1633 20.727 14.5 20.287 14.74C19.8537 14.9733 19.3737 15.09 18.847 15.09ZM18.847 14.1C19.1404 14.1 19.4137 14.03 19.667 13.89C19.927 13.75 20.137 13.54 20.297 13.26C20.457 12.98 20.537 12.64 20.537 12.24C20.537 11.84 20.4604 11.5033 20.307 11.23C20.1537 10.95 19.9504 10.74 19.697 10.6C19.4437 10.46 19.1704 10.39 18.877 10.39C18.5837 10.39 18.3104 10.46 18.057 10.6C17.8104 10.74 17.6137 10.95 17.467 11.23C17.3204 11.5033 17.247 11.84 17.247 12.24C17.247 12.8333 17.397 13.2933 17.697 13.62C18.0037 13.94 18.387 14.1 18.847 14.1ZM29.5216 8.05V8.98H26.5716V11.03H28.8716V11.96H26.5716V15H25.4316V8.05H29.5216ZM35.6281 12.11C35.6281 12.3167 35.6148 12.5033 35.5881 12.67H31.3781C31.4115 13.11 31.5748 13.4633 31.8681 13.73C32.1615 13.9967 32.5215 14.13 32.9481 14.13C33.5615 14.13 33.9948 13.8733 34.2481 13.36H35.4781C35.3115 13.8667 35.0081 14.2833 34.5681 14.61C34.1348 14.93 33.5948 15.09 32.9481 15.09C32.4215 15.09 31.9481 14.9733 31.5281 14.74C31.1148 14.5 30.7881 14.1667 30.5481 13.74C30.3148 13.3067 30.1981 12.8067 30.1981 12.24C30.1981 11.6733 30.3115 11.1767 30.5381 10.75C30.7715 10.3167 31.0948 9.98333 31.5081 9.75C31.9281 9.51667 32.4081 9.4 32.9481 9.4C33.4681 9.4 33.9315 9.51333 34.3381 9.74C34.7448 9.96667 35.0615 10.2867 35.2881 10.7C35.5148 11.1067 35.6281 11.5767 35.6281 12.11ZM34.4381 11.75C34.4315 11.33 34.2815 10.9933 33.9881 10.74C33.6948 10.4867 33.3315 10.36 32.8981 10.36C32.5048 10.36 32.1681 10.4867 31.8881 10.74C31.6081 10.9867 31.4415 11.3233 31.3881 11.75H34.4381ZM41.8 12.11C41.8 12.3167 41.7867 12.5033 41.76 12.67H37.55C37.5833 13.11 37.7467 13.4633 38.04 13.73C38.3333 13.9967 38.6933 14.13 39.12 14.13C39.7333 14.13 40.1667 13.8733 40.42 13.36H41.65C41.4833 13.8667 41.18 14.2833 40.74 14.61C40.3067 14.93 39.7667 15.09 39.12 15.09C38.5933 15.09 38.12 14.9733 37.7 14.74C37.2867 14.5 36.96 14.1667 36.72 13.74C36.4867 13.3067 36.37 12.8067 36.37 12.24C36.37 11.6733 36.4833 11.1767 36.71 10.75C36.9433 10.3167 37.2667 9.98333 37.68 9.75C38.1 9.51667 38.58 9.4 39.12 9.4C39.64 9.4 40.1033 9.51333 40.51 9.74C40.9167 9.96667 41.2333 10.2867 41.46 10.7C41.6867 11.1067 41.8 11.5767 41.8 12.11ZM40.61 11.75C40.6033 11.33 40.4533 10.9933 40.16 10.74C39.8667 10.4867 39.5033 10.36 39.07 10.36C38.6767 10.36 38.34 10.4867 38.06 10.74C37.78 10.9867 37.6133 11.3233 37.56 11.75H40.61ZM44.9219 15.09C44.4885 15.09 44.0985 15.0133 43.7519 14.86C43.4119 14.7 43.1419 14.4867 42.9419 14.22C42.7419 13.9467 42.6352 13.6433 42.6219 13.31H43.8019C43.8219 13.5433 43.9319 13.74 44.1319 13.9C44.3385 14.0533 44.5952 14.13 44.9019 14.13C45.2219 14.13 45.4685 14.07 45.6419 13.95C45.8219 13.8233 45.9119 13.6633 45.9119 13.47C45.9119 13.2633 45.8119 13.11 45.6119 13.01C45.4185 12.91 45.1085 12.8 44.6819 12.68C44.2685 12.5667 43.9319 12.4567 43.6719 12.35C43.4119 12.2433 43.1852 12.08 42.9919 11.86C42.8052 11.64 42.7119 11.35 42.7119 10.99C42.7119 10.6967 42.7985 10.43 42.9719 10.19C43.1452 9.94333 43.3919 9.75 43.7119 9.61C44.0385 9.47 44.4119 9.4 44.8319 9.4C45.4585 9.4 45.9619 9.56 46.3419 9.88C46.7285 10.1933 46.9352 10.6233 46.9619 11.17H45.8219C45.8019 10.9233 45.7019 10.7267 45.5219 10.58C45.3419 10.4333 45.0985 10.36 44.7919 10.36C44.4919 10.36 44.2619 10.4167 44.1019 10.53C43.9419 10.6433 43.8619 10.7933 43.8619 10.98C43.8619 11.1267 43.9152 11.25 44.0219 11.35C44.1285 11.45 44.2585 11.53 44.4119 11.59C44.5652 11.6433 44.7919 11.7133 45.0919 11.8C45.4919 11.9067 45.8185 12.0167 46.0719 12.13C46.3319 12.2367 46.5552 12.3967 46.7419 12.61C46.9285 12.8233 47.0252 13.1067 47.0319 13.46C47.0319 13.7733 46.9452 14.0533 46.7719 14.3C46.5985 14.5467 46.3519 14.74 46.0319 14.88C45.7185 15.02 45.3485 15.09 44.9219 15.09Z" fill="#FCFCFC"/>
<path d="M8.5 1H48.5V-1H8.5V1ZM55.5 8V14H57.5V8H55.5ZM48.5 21H8.5V23H48.5V21ZM1.5 14V8H-0.5V14H1.5ZM8.5 21C4.63401 21 1.5 17.866 1.5 14H-0.5C-0.5 18.9706 3.52944 23 8.5 23V21ZM55.5 14C55.5 17.866 52.366 21 48.5 21V23C53.4706 23 57.5 18.9706 57.5 14H55.5ZM48.5 1C52.366 1 55.5 4.13401 55.5 8H57.5C57.5 3.02944 53.4706 -1 48.5 -1V1ZM8.5 -1C3.52944 -1 -0.5 3.02944 -0.5 8H1.5C1.5 4.13401 4.63401 1 8.5 1V-1Z" fill="url(#paint1_linear)"/>
<defs>
<linearGradient id="paint0_linear" x1="28.5" y1="0" x2="28.5" y2="22" gradientUnits="userSpaceOnUse">
<stop stop-color="#3924B5"/>
<stop offset="0.291667" stop-color="#6424B5"/>
<stop offset="0.640625" stop-color="#B52472"/>
<stop offset="1" stop-color="#E9C856"/>
</linearGradient>
<linearGradient id="paint1_linear" x1="28.5" y1="0" x2="28.5" y2="22" gradientUnits="userSpaceOnUse">
<stop stop-color="#3924B5"/>
<stop offset="0.291667" stop-color="#6424B5"/>
<stop offset="0.640625" stop-color="#B52472"/>
<stop offset="1" stop-color="#E9C856"/>
</linearGradient>
</defs>
</svg>
