<svg width="33" height="32" viewBox="0 0 33 32" fill="none" xmlns="http://www.w3.org/2000/svg">
<g clip-path="url(#clip0_3070:11656)">
<circle cx="16.5" cy="16" r="16" fill="#FCFCFC"/>
<path fill-rule="evenodd" clip-rule="evenodd" d="M31.0604 15.9999C31.0604 24.0214 24.5219 30.5599 16.5004 30.5599C8.48308 30.5599 1.94043 24.0214 1.94043 15.9999C1.94043 7.98259 8.47893 1.43994 16.5004 1.43994C24.5219 1.43994 31.0604 7.97844 31.0604 15.9999ZM6.68851 8.43541C6.68851 7.27227 6.89206 6.21298 7.30747 5.24509C-0.294472 11.7337 2.55522 22.1604 11.744 25.4214C13.0525 25.8825 14.332 26.111 15.5865 26.111C17.4268 26.111 19.778 25.33 19.778 23.1366C19.778 21.2508 16.699 19.4924 15.0002 18.5223C14.8841 18.4559 14.7744 18.3933 14.6726 18.3345L14.6175 18.3035C10.546 16.0053 6.68851 13.828 6.68851 8.43541ZM26.196 23.6684C26.196 24.8315 25.9924 25.895 25.577 26.8587C33.1789 20.3701 30.3293 9.94753 21.1405 6.68243C19.8319 6.22133 18.5525 5.99286 17.2938 5.99286C15.4577 5.99286 13.1065 6.77382 13.1065 8.96717C13.1065 10.853 16.1855 12.6114 17.8842 13.5816L17.8842 13.5816C18.0004 13.6479 18.1101 13.7105 18.2119 13.7693L18.2489 13.7901C22.327 16.0879 26.196 18.2678 26.196 23.6684Z" fill="#5F47EE"/>
</g>
<defs>
<clipPath id="clip0_3070:11656">
<rect width="32" height="32" fill="white" transform="translate(0.5)"/>
</clipPath>
</defs>
</svg>
