<svg width="33" height="32" viewBox="0 0 33 32" fill="none" xmlns="http://www.w3.org/2000/svg">
<g clip-path="url(#clip0_3070:11795)">
<circle cx="16.5" cy="16" r="16" fill="#FCFCFC"/>
<g clip-path="url(#clip1_3070:11795)">
<path fill-rule="evenodd" clip-rule="evenodd" d="M24.2114 28.0437C28.3192 25.4857 31.0535 20.9999 31.0535 15.8841C31.0535 7.9205 24.4382 1.46899 16.273 1.46899C12.077 1.46899 8.28422 3.17008 5.6003 5.90441H17.4071C22.4221 5.90441 26.5047 9.8862 26.5047 14.7752C26.5047 18.82 23.7074 22.2474 19.8894 23.3058L24.2114 28.0437ZM10.2878 19.2862H17.4323C19.8769 19.2862 21.8552 17.2575 21.8804 14.7752C21.8804 12.2803 19.8895 10.2516 17.4449 10.2516H3.04245C2.32421 11.9905 1.93359 13.8932 1.93359 15.8967C1.93359 24.0115 8.3725 30.589 16.3235 30.589C17.5079 30.589 18.6672 30.4378 19.7635 30.1605L10.2878 19.2862Z" fill="#5F47EE"/>
</g>
</g>
<defs>
<clipPath id="clip0_3070:11795">
<rect width="32" height="32" fill="white" transform="translate(0.5)"/>
</clipPath>
<clipPath id="clip1_3070:11795">
<rect width="29.12" height="29.12" fill="white" transform="translate(1.94043 1.43994)"/>
</clipPath>
</defs>
</svg>
