<svg width="160" height="192" viewBox="0 0 160 192" fill="none" xmlns="http://www.w3.org/2000/svg">
<g opacity="0.4">
<path fill-rule="evenodd" cilp-rule="evenodd" d="M205 89.5C205 145.97 158.97 192 102.5 192C46.0592 192 0 145.97 0 89.5C0 33.0592 46.03 -13 102.5 -13C158.97 -13 205 33.03 205 89.5ZM33.4257 36.2469C33.4257 28.0586 34.8587 20.6014 37.7831 13.7876C-15.7333 59.4666 4.32801 132.869 69.0156 155.825C78.2274 159.071 87.2346 160.68 96.0662 160.68C109.021 160.68 125.573 155.182 125.573 139.741C125.573 126.465 103.898 114.086 91.939 107.257L91.9356 107.255C91.1193 106.789 90.3483 106.348 89.6326 105.935L89.2448 105.716C60.5818 89.5378 33.4257 74.2098 33.4257 36.2469ZM170.755 143.484C170.755 151.673 169.322 159.159 166.398 165.944C219.914 120.265 199.853 46.8917 135.165 23.906C125.954 20.6599 116.947 19.0515 108.086 19.0515C95.1598 19.0515 78.6077 24.5493 78.6077 39.9901C78.6077 53.2659 100.283 65.6449 112.242 72.4747C113.06 72.9416 113.832 73.3826 114.548 73.7961L114.809 73.9429C143.519 90.1191 170.755 105.465 170.755 143.484Z" fill="#5F47EE"/>
</g>
</svg>
