<svg width="24" height="24" viewBox="0 0 24 24" fill="none" xmlns="http://www.w3.org/2000/svg">
<path fill-rule="evenodd" cilp-rule="evenodd" d="M12 24C18.6274 24 24 18.6274 24 12C24 5.37258 18.6274 0 12 0C5.37258 0 0 5.37258 0 12C0 18.6274 5.37258 24 12 24ZM8.51219 16.086C11.004 16.086 13.0241 14.0521 13.0241 11.5431C13.0241 9.0341 11.0042 7.00002 8.51219 7.00002C6.02021 7.00002 4.00008 9.0341 4.00008 11.5431C4.00008 14.0521 6.02037 16.086 8.51219 16.086ZM15.7238 15.821C16.9698 15.821 17.9799 13.9057 17.9799 11.544H17.9797C17.9797 9.18175 16.9697 7.26709 15.7237 7.26709C14.4777 7.26709 13.4678 9.18237 13.4678 11.544C13.4678 13.9057 14.4778 15.821 15.7238 15.821ZM19.9998 11.538C19.9998 13.6535 19.6447 15.3695 19.2064 15.3695C18.7681 15.3695 18.4131 13.654 18.4131 11.538C18.4131 9.42208 18.7683 7.70654 19.2064 7.70654C19.6445 7.70654 19.9998 9.42192 19.9998 11.538Z" fill="#FCFCFC"/>
</svg>
