<svg width="24" height="24" viewBox="0 0 24 24" fill="none" xmlns="http://www.w3.org/2000/svg">
<path fill-rule="evenodd" cilp-rule="evenodd" d="M12 24C18.6274 24 24 18.6274 24 12C24 5.37258 18.6274 0 12 0C5.37258 0 0 5.37258 0 12C0 18.6274 5.37258 24 12 24ZM11.6363 17.3671C11.6363 17.0578 11.3832 16.8329 11.102 16.8329C10.8208 16.8329 10.5678 17.0578 10.5678 17.3671C10.5678 17.6765 10.8208 17.9014 11.102 17.9014C11.4113 17.9014 11.6363 17.6483 11.6363 17.3671ZM18.8348 13.0368C18.8348 13.3461 19.0879 13.5711 19.3691 13.5711C19.6503 13.5711 19.9034 13.318 19.9034 13.0368C19.9034 12.7275 19.6503 12.5025 19.3691 12.5025C19.0598 12.5025 18.8348 12.7556 18.8348 13.0368ZM17.7382 13.0368C17.7382 12.137 18.4693 11.4059 19.3691 11.4059C20.2689 11.4059 21 12.137 21 13.0649C21 13.9647 20.2689 14.6958 19.3691 14.6958C19.0035 14.6958 18.638 14.5833 18.3568 14.3584L12.733 17.3953C12.7048 18.2951 12.0019 18.9981 11.102 18.9981C10.3147 18.9981 9.61172 18.3794 9.49924 17.5921L4.38154 14.9489C3.53797 14.5271 2.94746 13.318 3.0037 12.1651C3.03182 11.434 3.34113 10.8435 3.81916 10.5623C3.97549 10.4685 5.50501 9.70549 7.4462 8.73712C8.99667 7.96366 10.8098 7.05918 12.3955 6.26006L12.5924 6.1757C12.6767 6.11946 13.2391 5.81015 13.914 6.1757C14.7013 6.59749 16.5009 7.44107 18.0756 8.17217C18.3734 8.3096 18.6758 8.45171 18.9639 8.58708C19.3832 8.78405 19.7721 8.96677 20.0721 9.1001C20.0721 9.1001 20.3251 9.21258 20.3251 9.46565C20.3251 9.66249 20.1845 9.77496 20.0439 9.8312L11.3832 14.3303C10.9052 14.5552 10.7646 14.499 10.4834 14.3865C10.3797 14.3346 8.75556 13.4854 7.21932 12.6821C6.25721 12.179 5.32957 11.6939 4.83145 11.434L4.80333 11.4059C4.6065 11.3215 4.4659 11.2934 4.3253 11.3778C4.12847 11.4902 3.98787 11.7995 3.95975 12.1932C3.90352 12.9806 4.29718 13.796 4.80333 14.0772L9.63984 16.6079C9.92103 16.0737 10.4834 15.7081 11.102 15.7081C11.6363 15.7081 12.1424 15.9612 12.4518 16.4111L17.8225 13.5429C17.7663 13.3742 17.7382 13.2055 17.7382 13.0368Z" fill="#FCFCFC"/>
</svg>
