<svg width="194" height="194" viewBox="0 0 194 194" fill="none" xmlns="http://www.w3.org/2000/svg">
<circle cx="96.5" cy="108.5" r="48.5" stroke="#5F47EE" stroke-width="2"/>
<circle cx="146" cy="101" r="11" fill="url(#paint0_radial)"/>
<circle cx="89.5" cy="157.5" r="13.5" fill="url(#paint1_radial)"/>
<circle cx="155.101" cy="90.1011" r="6.5" transform="rotate(36.9195 155.101 90.1011)" fill="url(#paint2_radial)"/>
<g clip-path="url(#clip0)">
<circle cx="75.8" cy="83.8" r="56.8" fill="#FCFCFC"/>
<path fill-rule="evenodd" cilp-rule="evenodd" d="M127.488 83.7998C127.488 112.276 104.277 135.488 75.8003 135.488C47.3387 135.488 24.1123 112.276 24.1123 83.7998C24.1123 55.3382 47.324 32.1118 75.8003 32.1118C104.277 32.1118 127.488 55.3235 127.488 83.7998ZM40.968 56.9457C40.968 52.8166 41.6906 49.0561 43.1653 45.6201C16.1784 68.6548 26.2948 105.67 58.915 117.246C63.5603 118.883 68.1024 119.694 72.5559 119.694C79.0888 119.694 87.4356 116.921 87.4356 109.135C87.4356 102.441 76.5053 96.1982 70.4747 92.7541L70.4747 92.754C70.0624 92.5186 69.673 92.2962 69.3116 92.0877L69.116 91.9773C54.6621 83.8189 40.968 76.0894 40.968 56.9457ZM110.22 111.023C110.22 115.152 109.497 118.927 108.022 122.348C135.009 99.3137 124.893 62.3136 92.2726 50.7225C87.6273 49.0856 83.0852 48.2746 78.6169 48.2746C72.0988 48.2746 63.752 51.047 63.752 58.8334C63.752 65.528 74.6824 71.7704 80.713 75.2145L80.7135 75.2147C81.1255 75.4501 81.5147 75.6724 81.876 75.8808L82.0074 75.9548C96.4849 84.1121 110.22 91.8507 110.22 111.023Z" fill="#5F47EE"/>
</g>
<g clip-path="url(#clip1)">
<circle cx="140.308" cy="150.308" r="27.3077" fill="#FCFCFC"/>
<path fill-rule="evenodd" cilp-rule="evenodd" d="M165.158 150.308C165.158 163.998 153.999 175.158 140.308 175.158C126.625 175.158 115.458 163.998 115.458 150.308C115.458 136.624 126.617 125.458 140.308 125.458C153.999 125.458 165.158 136.617 165.158 150.308ZM123.562 137.397C123.562 135.412 123.909 133.604 124.618 131.952C111.644 143.026 116.507 160.822 132.19 166.387C134.423 167.174 136.607 167.564 138.748 167.564C141.889 167.564 145.902 166.231 145.902 162.488C145.902 159.269 140.647 156.268 137.748 154.612C137.549 154.499 137.362 154.392 137.188 154.292L137.094 154.239C130.145 150.317 123.562 146.601 123.562 137.397ZM156.856 163.395C156.856 165.381 156.508 167.196 155.799 168.841C168.774 157.766 163.91 139.978 148.227 134.405C145.994 133.618 143.81 133.228 141.662 133.228C138.528 133.228 134.516 134.561 134.516 138.304C134.516 141.523 139.771 144.524 142.67 146.18C142.868 146.293 143.055 146.4 143.229 146.5L143.292 146.536C150.253 150.458 156.856 154.178 156.856 163.395Z" fill="#5F47EE"/>
</g>
<defs>
<radialGradient id="paint0_radial" cx="0" cy="0" r="1" gradientUnits="userSpaceOnUse" gradientTransform="translate(148.256 96.2051) rotate(98.1301) scale(15.9552)">
<stop stop-color="#3924B5"/>
<stop offset="0.291667" stop-color="#6424B5"/>
<stop offset="0.640625" stop-color="#B52472"/>
<stop offset="1" stop-color="#E9C856"/>
</radialGradient>
<radialGradient id="paint1_radial" cx="0" cy="0" r="1" gradientUnits="userSpaceOnUse" gradientTransform="translate(92.2692 151.615) rotate(98.1301) scale(19.5814)">
<stop stop-color="#3924B5"/>
<stop offset="0.291667" stop-color="#6424B5"/>
<stop offset="0.640625" stop-color="#B52472"/>
<stop offset="1" stop-color="#E9C856"/>
</radialGradient>
<radialGradient id="paint2_radial" cx="0" cy="0" r="1" gradientUnits="userSpaceOnUse" gradientTransform="translate(156.434 87.2678) rotate(98.1301) scale(9.42809)">
<stop stop-color="#3924B5"/>
<stop offset="0.291667" stop-color="#6424B5"/>
<stop offset="0.640625" stop-color="#B52472"/>
<stop offset="1" stop-color="#E9C856"/>
</radialGradient>
<clip-path id="clip0">
<rect width="113.6" height="113.6" fill="white" transform="translate(19 27)"/>
</clip-path>
<clip-path id="clip1">
<rect width="54.6154" height="54.6154" fill="white" transform="translate(113 123)"/>
</clip-path>
</defs>
</svg>
