<svg width="194" height="194" viewBox="0 0 194 194" fill="none" xmlns="http://www.w3.org/2000/svg">
<path d="M95.371 139.925C106.483 138.674 116.694 139.064 124.214 140.693C127.976 141.508 131.036 142.627 133.195 143.985C135.36 145.345 136.548 146.897 136.735 148.564C136.923 150.23 136.11 152.007 134.302 153.815C132.499 155.619 129.764 157.39 126.277 159.022C119.308 162.281 109.44 164.932 98.3272 166.183C87.2147 167.434 77.0039 167.044 69.4845 165.415C65.7221 164.6 62.6619 163.481 60.5027 162.124C58.3381 160.763 57.1504 159.211 56.9628 157.545C56.7752 155.878 57.5881 154.101 59.3959 152.293C61.1993 150.49 63.9341 148.718 67.421 147.087C74.3901 143.827 84.2586 141.176 95.371 139.925Z" stroke="url(#paint0_linear)"/>
<circle cx="96.5" cy="97.5" r="60.5" fill="#6C60F7"/>
<path d="M179.604 76.0081L109.482 83.8761L111.15 93.9897L102.344 104.181L109.526 119.326L179.604 76.0081Z" fill="#0C0720"/>
<path d="M180.3 76.0277L108.851 80.4863L109.529 91.359L103.898 101.066L111.08 116.211L180.3 76.0277Z" fill="#291A83"/>
<path d="M114.969 66.0707L181.078 75.9789L108.852 80.486L114.969 66.0707Z" fill="#FCFCFC"/>
<path d="M103.948 89.3681L181.077 75.979L96.5198 107.763L103.948 89.3681Z" fill="#FCFCFC"/>
<path d="M33.7824 100.48C34.8759 100.324 35.6357 99.3106 35.4795 98.2171C35.3232 97.1237 34.3102 96.3639 33.2167 96.5201L33.7824 100.48ZM14.5003 116L16.4871 115.771L14.5003 116ZM95.7378 107.489C96.2842 106.529 95.949 105.308 94.9891 104.762L79.3459 95.8573C78.386 95.3109 77.1648 95.6461 76.6184 96.606C76.072 97.566 76.4072 98.7871 77.3671 99.3336L91.2722 107.249L83.357 121.154C82.8106 122.114 83.1458 123.335 84.1057 123.881C85.0657 124.428 86.2868 124.093 86.8333 123.133L95.7378 107.489ZM33.2167 96.5201C29.1946 97.0947 23.8996 99.9765 19.778 103.475C17.6868 105.25 15.7892 107.274 14.4539 109.384C13.1361 111.466 12.2378 113.84 12.5135 116.229L16.4871 115.771C16.359 114.66 16.7589 113.221 17.834 111.523C18.8916 109.851 20.482 108.125 22.3666 106.525C26.1965 103.274 30.8049 100.905 33.7824 100.48L33.2167 96.5201ZM12.5135 116.229C12.7913 118.637 14.4005 120.216 16.4389 121.144C18.409 122.042 20.9819 122.448 23.8411 122.561C29.5955 122.789 37.277 121.848 45.5642 120.343C62.1816 117.324 81.7991 111.923 94.5291 108.429L93.4703 104.571C80.7004 108.077 61.2604 113.426 44.8492 116.407C36.622 117.902 29.2964 118.774 23.9993 118.564C21.3328 118.459 19.3687 118.083 18.0969 117.504C16.8933 116.956 16.5555 116.363 16.4871 115.771L12.5135 116.229Z" fill="url(#paint1_linear)"/>
<defs>
<linearGradient id="paint0_linear" x1="56.466" y1="157.601" x2="137.232" y2="148.508" gradientUnits="userSpaceOnUse">
<stop stop-color="#5F47EE"/>
<stop offset="1" stop-color="#89FFE3"/>
</linearGradient>
<linearGradient id="paint1_linear" x1="54.2318" y1="98.5" x2="54.2318" y2="120.595" gradientUnits="userSpaceOnUse">
<stop stop-color="#3924B5"/>
<stop offset="0.291667" stop-color="#6424B5"/>
<stop offset="0.640625" stop-color="#B52472"/>
<stop offset="1" stop-color="#E9C856"/>
</linearGradient>
</defs>
</svg>
